<?xml version="1.0" encoding="utf-8"?>
<!-- Generator: Adobe Illustrator 24.0.1, SVG Export Plug-In . SVG Version: 6.00 Build 0)  -->
<svg version="1.1" id="Layer_1" xmlns="http://www.w3.org/2000/svg" xmlns:xlink="http://www.w3.org/1999/xlink" x="0px" y="0px"
	 viewBox="0 0 360 360" style="enable-background:new 0 0 360 360;" xml:space="preserve">
<style type="text/css">
	.st0{fill:#2016EF;}
	.st1{fill:#F6F6F6;}
</style>
<path class="st0" d="M175.07,40.31c79.85,0.39,143.53,64.84,143.22,144.95c-0.31,79.61-64.78,143.73-144.1,143.32
	c-80.08-0.41-143.37-65.03-142.96-145.95C31.63,104.18,96.57,39.93,175.07,40.31z M174.82,120.33c-25.64,0-51.28-0.01-76.92,0.01
	c-8.99,0.01-11.29,2.26-11.29,11.17c-0.02,35.28-0.02,70.57,0,105.85c0.01,9,2.25,11.27,11.21,11.27
	c51.28,0.02,102.56,0.02,153.84,0c9.01,0,11.22-2.2,11.22-11.19c0.02-35.28,0.02-70.57,0-105.85c0-9.08-2.15-11.25-11.14-11.25
	C226.1,120.32,200.46,120.33,174.82,120.33z"/>
<path class="st1" d="M174.82,120.33c25.64,0,51.28-0.01,76.92,0.01c8.99,0.01,11.14,2.18,11.14,11.25
	c0.02,35.28,0.02,70.57,0,105.85c0,8.99-2.21,11.19-11.22,11.19c-51.28,0.01-102.56,0.02-153.84,0c-8.96,0-11.21-2.27-11.21-11.27
	c-0.02-35.28-0.02-70.57,0-105.85c0.01-8.91,2.3-11.17,11.29-11.17C123.54,120.32,149.18,120.33,174.82,120.33z M235.04,138.72
	c-40.52,0-80.09,0-120.55,0c19.43,17.08,38.08,33.46,56.71,49.87c1.99,1.75,3.47,3.34,6.37,0.75
	C196.41,172.55,215.42,155.96,235.04,138.72z M234.44,233.2c-13.9-12.39-26.71-23.69-39.33-35.19c-2.44-2.22-3.72-1.3-5.83,0.29
	c-4.8,3.62-8.2,10.33-14.61,10.27c-6.37-0.06-9.76-6.76-14.58-10.37c-1.92-1.44-3.12-2.24-5.29-0.26
	c-12.72,11.61-25.58,23.07-39.14,35.25C155.46,233.2,194.11,233.2,234.44,233.2z M102.06,147.43c0,26.66,0,51.88,0,78.22
	c14.43-12.94,28.02-25.14,41.65-37.3c1.56-1.39,2.61-2.33,0.39-4.25C130.29,172.18,116.6,160.13,102.06,147.43z M247.49,225.22
	c0-26.16,0-51.45,0-77.87c-15.19,13.3-29.47,25.81-44.01,38.54C218.09,198.94,232.53,211.85,247.49,225.22z"/>
<path class="st0" d="M235.04,138.72c-19.62,17.24-38.63,33.83-57.47,50.62c-2.9,2.59-4.38,1-6.37-0.75
	c-18.63-16.41-37.28-32.79-56.71-49.87C154.95,138.72,194.51,138.72,235.04,138.72z"/>
<path class="st0" d="M234.44,233.2c-40.34,0-78.98,0-118.78,0c13.56-12.19,26.42-23.65,39.14-35.25c2.17-1.98,3.37-1.17,5.29,0.26
	c4.82,3.61,8.21,10.3,14.58,10.37c6.41,0.06,9.81-6.65,14.61-10.27c2.11-1.59,3.39-2.51,5.83-0.29
	C207.74,209.51,220.55,220.81,234.44,233.2z"/>
<path class="st0" d="M102.06,147.43c14.54,12.71,28.24,24.75,42.04,36.67c2.22,1.92,1.17,2.86-0.39,4.25
	c-13.63,12.16-27.22,24.37-41.65,37.3C102.06,199.31,102.06,174.09,102.06,147.43z"/>
<path class="st0" d="M247.49,225.22c-14.97-13.37-29.41-26.28-44.01-39.33c14.54-12.73,28.82-25.24,44.01-38.54
	C247.49,173.77,247.49,199.06,247.49,225.22z"/>
</svg>
