<?xml version="1.0" encoding="utf-8"?>
<!-- Generator: Adobe Illustrator 24.0.1, SVG Export Plug-In . SVG Version: 6.00 Build 0)  -->
<svg version="1.1" id="Layer_1" xmlns="http://www.w3.org/2000/svg" xmlns:xlink="http://www.w3.org/1999/xlink" x="0px" y="0px"
	 viewBox="0 0 360 360" style="enable-background:new 0 0 360 360;" xml:space="preserve">
<style type="text/css">
	.st0{fill:#E5011A;}
	.st1{fill:#FEFCFC;}
</style>
<path class="st0" d="M130.12,317.28c-15.96-5.72-30.09-14.56-42.8-25.63c-27.21-23.7-43.97-53.44-49.44-89.08
	C26.06,125.59,74.99,54.9,147.91,36.88c81.06-20.04,160.73,28.83,180.17,109.9c18.89,78.82-32.37,160.2-111.58,177.28
	c-24.57,5.3-48.91,4.76-73.09-2.12c-1.11-0.31-2.5-0.16-3.02-1.61c8.7-13.66,15.95-27.95,19.75-43.84
	c2.28-9.56,4.97-19.02,7.56-28.84c9.3,12.18,21.63,16.84,35.96,16.45c20.68-0.57,37.72-9.21,51.25-24.67
	c13.82-15.79,20.36-34.6,22.91-55.22c4.45-36.02-12.85-69.55-45.07-86.22c-20.14-10.42-41.52-12.61-63.72-9.54
	c-44.39,6.13-73.26,36.29-78.56,75.47c-2.85,21.02,1.65,40.28,14.37,57.4c3.88,5.22,8.74,9.42,14.68,12.25
	c2.68,1.28,4.37,0.78,5.07-2.33c0.74-3.31,1.44-6.65,2.54-9.85c1.85-5.38,2.13-10.32-2.3-14.7c-0.91-0.9-1.36-2.28-1.96-3.47
	c-12.79-25.57-5.29-58.14,17.58-76.13c15.16-11.93,32.68-15.76,51.42-13.62c22.81,2.61,39.81,13.93,48.86,35.61
	c4.65,11.14,5.13,22.88,3.9,34.74c-1.52,14.58-5.41,28.35-14.53,40.16c-7.37,9.56-16.83,15.51-29.13,16.6
	c-16.17,1.44-27.71-11.42-24.07-27.19c1.31-5.66,3.13-11.2,4.74-16.78c2.82-9.77,6.33-19.37,7.24-29.61
	c0.82-9.18-2.92-17.44-9.6-20.91c-7.35-3.82-16.66-2.4-23.72,3.66c-3.47,2.97-6.04,6.63-7.92,10.77
	c-4.83,10.61-5.68,21.78-2.25,32.69c2.26,7.17,1.91,13.65-0.2,20.45c-0.36,1.16-0.6,2.35-0.88,3.53
	c-4.46,18.87-8.95,37.74-13.37,56.62C127.57,288.22,128.67,302.75,130.12,317.28z"/>
<path class="st1" d="M130.12,317.28c-1.45-14.53-2.54-29.06,0.83-43.49c4.42-18.88,8.91-37.75,13.37-56.62
	c0.28-1.18,0.52-2.37,0.88-3.53c2.11-6.8,2.46-13.29,0.2-20.45c-3.43-10.9-2.58-22.08,2.25-32.69c1.88-4.13,4.45-7.8,7.92-10.77
	c7.06-6.05,16.37-7.47,23.72-3.66c6.68,3.47,10.42,11.73,9.6,20.91c-0.92,10.24-4.42,19.84-7.24,29.61
	c-1.61,5.59-3.44,11.12-4.74,16.78c-3.65,15.77,7.89,28.63,24.07,27.19c12.29-1.09,21.76-7.04,29.13-16.6
	c9.12-11.82,13.01-25.58,14.53-40.16c1.23-11.86,0.75-23.6-3.9-34.74c-9.05-21.68-26.05-32.99-48.86-35.61
	c-18.75-2.15-36.26,1.69-51.42,13.62c-22.87,17.99-30.37,50.57-17.58,76.13c0.6,1.19,1.05,2.57,1.96,3.47
	c4.43,4.38,4.15,9.32,2.3,14.7c-1.1,3.2-1.8,6.54-2.54,9.85c-0.7,3.1-2.39,3.61-5.07,2.33c-5.94-2.84-10.8-7.03-14.68-12.25
	c-12.71-17.12-17.21-36.38-14.37-57.4c5.3-39.18,34.17-69.33,78.56-75.47c22.2-3.07,43.58-0.88,63.72,9.54
	c32.23,16.67,49.52,50.2,45.07,86.22c-2.55,20.62-9.09,39.43-22.91,55.22c-13.53,15.46-30.57,24.1-51.25,24.67
	c-14.34,0.4-26.66-4.27-35.96-16.45c-2.59,9.82-5.27,19.29-7.56,28.84c-3.8,15.89-11.05,30.18-19.75,43.84
	C136.65,320.35,133.29,319.14,130.12,317.28z"/>
</svg>
